<svg xmlns="http://www.w3.org/2000/svg" height="48" viewBox="0 -960 960 960" width="48"><path d="M480-960c-16.842 0-30.881 5.608-42.109 16.836L16.836-522.109C5.608-510.881 0-496.842 0-480s5.608 30.881 16.836 42.109L437.891-16.836C449.119-5.608 463.158 0 480 0s30.881-5.608 42.109-16.836l421.055-421.055C954.392-449.119 960-463.157 960-480s-5.608-30.881-16.836-42.109L522.109-943.164C510.881-954.392 496.843-960 480-960zM359.102-681.875c15.337 0 30.709 5.865 42.461 17.617a59.86 59.86 0 0 1 0 84.844l-98.984 99.023 99.805 99.805a59.86 59.86 0 0 1 0 84.844c-23.504 23.504-61.379 23.504-84.883 0L176.094-437.148c-.147-.147-.168-.36-.312-.508s-.361-.166-.508-.313c-23.504-23.504-23.504-61.379 0-84.883L316.68-664.258c11.752-11.752 27.085-17.617 42.422-17.617zm241.797.82c15.337 0 30.67 5.865 42.422 17.617l140.586 140.586.82.82c23.504 23.504 23.504 61.379 0 84.883-1.443 1.443-3.338 1.976-4.883 3.242L642.5-296.562c-23.504 23.504-61.379 23.504-84.883 0a59.86 59.86 0 0 1 0-84.844l99.023-98.984-98.203-98.203a59.86 59.86 0 0 1 0-84.844c11.752-11.752 27.124-17.617 42.461-17.617z"/></svg>