<svg xmlns="http://www.w3.org/2000/svg" height="48" viewBox="0 -960 960 960" width="48" ><path d="M360-840h480v720H120v-480z" fill="#f7df1e"/><path d="M459.455-513.57v215.558c0 33.08-12.522 41.585-34.286 41.585-22.768 0-38.571-14.196-49.018-32.612l-53.839 32.612c15.603 33.013 53.839 68.571 106.875 68.571 58.661 0 98.839-31.205 98.839-99.71V-513.57zm213.482 0c-58.393 0-95.826 37.366-95.826 86.451 0 53.237 31.406 78.415 78.616 98.504l16.339 7.031c29.799 13.058 44.531 21.027 44.531 43.46 0 18.683-14.196 32.21-41.317 32.21-32.277 0-47.545-21.897-61.54-44.799l-51.429 34.286c19.219 37.969 53.705 68.571 114.442 68.571 62.143 0 108.415-32.277 108.415-91.138 0-54.643-31.339-78.951-86.987-102.79l-16.339-6.964c-28.058-12.187-40.245-20.089-40.245-39.71 0-15.871 12.188-28.058 31.339-28.058 18.817 0 30.87 7.969 42.054 28.058l50.96-32.679c-21.495-37.969-51.429-52.433-93.013-52.433z"/><path d="M360-840v240H120z" fill="#fc0"/></svg>